<svg xmlns="http://www.w3.org/2000/svg" viewBox="0 0 93 93" id="logo-icon">
  <style>
    .primary { fill: var(--primary-color, #82c850); }
    .secondary { fill: var(--secondary-color, #80292b); }
  </style>
  <path class="primary" d="M83.71 92.99H9.28C4.16 92.99 0 88.83 0 83.71V9.28C0 4.16 4.16 0 9.28 0h74.43c5.11 0 9.28 4.16 9.28 9.28v74.43c0 5.11-4.17 9.28-9.28 9.28"/>
  <path class="secondary" d="M67.59 47.08c-.15 7.93-6.62 14.3-14.58 14.3-8.06 0-14.59-6.53-14.59-14.59s6.53-14.59 14.59-14.59c2.2 0 4.28.49 6.15 1.36L46.37 13.48h-.28L4.91 79.5h82.65L67.59 47.08z"/>
</svg>
